M48
; DRILL file {KiCad 5.1.9-73d0e3b20d~88~ubuntu20.04.1} date Sun Apr  4 00:09:48 2021
; FORMAT={-:-/ absolute / metric / decimal}
; #@! TF.CreationDate,2021-04-04T00:09:48+02:00
; #@! TF.GenerationSoftware,Kicad,Pcbnew,5.1.9-73d0e3b20d~88~ubuntu20.04.1
FMAT,2
METRIC
T1C0.800
T2C1.000
T3C2.700
%
G90
G05
T1
X4.84Y-86.145
X4.84Y-83.605
X6.11Y-70.27
X6.11Y-60.11
X7.38Y-86.145
X7.38Y-83.605
X9.92Y-70.27
X9.92Y-60.11
X13.73Y-70.27
X13.73Y-60.11
X17.54Y-89.32
X17.54Y-86.78
X17.54Y-84.24
X17.54Y-81.7
X17.54Y-79.16
X17.54Y-76.62
X17.54Y-74.08
X17.54Y-70.27
X17.54Y-60.11
X18.81Y-94.4
X21.35Y-70.27
X21.35Y-60.11
X23.81Y-94.4
X25.16Y-89.32
X25.16Y-86.78
X25.16Y-84.24
X25.16Y-81.7
X25.16Y-79.16
X25.16Y-76.62
X25.16Y-74.08
X26.43Y-66.42
X26.43Y-63.92
X27.7Y-55.03
X27.7Y-52.49
X27.7Y-49.95
X27.7Y-47.41
X27.7Y-44.87
X27.7Y-42.33
X27.7Y-39.79
X27.7Y-37.25
X27.7Y-34.71
X27.7Y-32.17
X27.7Y-29.63
X27.7Y-27.09
X27.7Y-24.55
X27.7Y-22.01
X27.7Y-13.12
X27.7Y-5.5
X30.24Y-91.86
X30.24Y-13.12
X30.24Y-5.5
X32.78Y-13.12
X32.78Y-5.5
X32.86Y-59.475
X35.32Y-89.32
X35.32Y-86.78
X35.32Y-84.24
X35.32Y-81.7
X35.32Y-79.16
X35.32Y-76.62
X35.32Y-74.08
X35.32Y-71.54
X35.32Y-13.12
X35.32Y-5.5
X36.59Y-94.4
X37.86Y-59.475
X37.86Y-13.12
X37.86Y-5.5
X40.4Y-13.12
X40.4Y-5.5
X41.59Y-94.4
X42.94Y-89.32
X42.94Y-86.78
X42.94Y-84.24
X42.94Y-81.7
X42.94Y-79.16
X42.94Y-76.62
X42.94Y-74.08
X42.94Y-71.54
X42.94Y-55.03
X42.94Y-52.49
X42.94Y-49.95
X42.94Y-47.41
X42.94Y-44.87
X42.94Y-42.33
X42.94Y-39.79
X42.94Y-37.25
X42.94Y-34.71
X42.94Y-32.17
X42.94Y-29.63
X42.94Y-27.09
X42.94Y-24.55
X42.94Y-22.01
X42.94Y-13.12
X42.94Y-5.5
X46.75Y-69.0
X49.29Y-69.0
X49.29Y-30.9
X53.1Y-89.32
X53.1Y-86.78
X53.1Y-84.24
X53.1Y-81.7
X53.1Y-79.16
X53.1Y-76.62
X53.1Y-74.08
X53.1Y-55.03
X53.1Y-52.49
X53.1Y-49.95
X53.1Y-47.41
X53.1Y-44.87
X53.1Y-42.33
X53.1Y-39.79
X53.1Y-37.25
X53.1Y-34.71
X53.1Y-32.17
X53.1Y-29.63
X53.1Y-27.09
X53.1Y-24.55
X53.1Y-22.01
X53.1Y-19.47
X53.1Y-16.93
X53.1Y-13.12
X53.1Y-9.31
X53.1Y-5.5
X54.37Y-94.4
X58.26Y-59.475
X59.37Y-94.4
X60.72Y-89.32
X60.72Y-86.78
X60.72Y-84.24
X60.72Y-81.7
X60.72Y-79.16
X60.72Y-76.62
X60.72Y-74.08
X63.26Y-59.475
X63.26Y-13.12
X63.26Y-9.31
X63.26Y-5.5
X67.705Y-60.11
X68.34Y-55.03
X68.34Y-52.49
X68.34Y-49.95
X68.34Y-47.41
X68.34Y-44.87
X68.34Y-42.33
X68.34Y-39.79
X68.34Y-37.25
X68.34Y-34.71
X68.34Y-32.17
X68.34Y-29.63
X68.34Y-27.09
X68.34Y-24.55
X68.34Y-22.01
X68.34Y-19.47
X68.34Y-16.93
X68.34Y-14.39
X70.245Y-8.04
X70.88Y-89.32
X70.88Y-86.78
X70.88Y-84.24
X70.88Y-81.7
X70.88Y-79.16
X70.88Y-76.62
X70.88Y-74.08
X72.15Y-94.4
X72.785Y-8.04
X74.055Y-55.03
X74.055Y-39.79
X74.055Y-37.25
X74.055Y-16.93
X75.325Y-48.68
X75.325Y-44.87
X75.325Y-32.17
X75.325Y-24.55
X75.96Y-58.205
X76.595Y-51.22
X76.595Y-42.33
X76.595Y-39.79
X76.595Y-19.47
X77.15Y-94.4
X77.865Y-53.76
X77.865Y-34.71
X77.865Y-29.63
X77.865Y-24.55
X78.5Y-89.32
X78.5Y-86.78
X78.5Y-84.24
X78.5Y-81.7
X78.5Y-79.16
X78.5Y-76.62
X78.5Y-74.08
X79.135Y-62.65
X79.135Y-27.09
X79.135Y-18.2
X80.405Y-56.3
X80.405Y-20.74
X84.85Y-55.03
X84.85Y-52.49
X84.85Y-49.95
X84.85Y-47.41
X84.85Y-44.87
X84.85Y-42.33
X84.85Y-39.79
X84.85Y-37.25
X84.85Y-34.71
X84.85Y-32.17
X84.85Y-29.63
X84.85Y-27.09
X84.85Y-24.55
X84.85Y-22.01
X84.85Y-19.47
X84.85Y-16.93
X84.85Y-14.39
X84.85Y-11.85
X84.85Y-9.31
X84.85Y-6.77
X88.66Y-89.32
X88.66Y-86.78
X88.66Y-84.24
X88.66Y-81.7
X88.66Y-79.16
X88.66Y-76.62
X88.66Y-74.08
X88.66Y-71.54
X88.66Y-69.0
X88.66Y-66.46
X89.93Y-94.4
X90.01Y-3.595
X94.93Y-94.4
X95.01Y-3.595
X96.28Y-89.32
X96.28Y-86.78
X96.28Y-84.24
X96.28Y-81.7
X96.28Y-79.16
X96.28Y-76.62
X96.28Y-74.08
X96.28Y-71.54
X96.28Y-69.0
X96.28Y-66.46
X100.09Y-55.03
X100.09Y-52.49
X100.09Y-49.95
X100.09Y-47.41
X100.09Y-44.87
X100.09Y-42.33
X100.09Y-39.79
X100.09Y-37.25
X100.09Y-34.71
X100.09Y-32.17
X100.09Y-29.63
X100.09Y-27.09
X100.09Y-24.55
X100.09Y-22.01
X100.09Y-19.47
X100.09Y-16.93
X100.09Y-14.39
X100.09Y-11.85
X100.09Y-9.31
X100.09Y-6.77
X103.265Y-46.14
X103.9Y-66.473
X103.9Y-64.555
X104.535Y-28.36
X104.535Y-20.74
X105.805Y-16.93
X105.805Y-13.12
X106.44Y-89.32
X106.44Y-86.78
X106.44Y-84.24
X106.44Y-81.7
X106.44Y-79.16
X106.44Y-76.62
X106.44Y-74.08
X107.075Y-23.28
X107.71Y-94.4
X108.345Y-3.595
X109.615Y-35.98
X110.885Y-33.44
X112.155Y-25.82
X112.155Y-23.28
X112.155Y-8.04
X112.71Y-94.4
X113.425Y-57.57
X113.425Y-29.63
X114.06Y-89.32
X114.06Y-86.78
X114.06Y-84.24
X114.06Y-81.7
X114.06Y-79.16
X114.06Y-76.62
X114.06Y-74.08
X114.695Y-47.41
X114.695Y-38.52
X114.695Y-34.71
X115.965Y-55.03
X117.235Y-47.41
X117.235Y-34.71
X118.505Y-58.84
X118.505Y-52.49
X118.505Y-37.25
X119.775Y-49.95
X119.775Y-39.79
X120.41Y-30.9
X120.41Y-28.36
X120.41Y-25.82
X120.41Y-23.28
X120.41Y-20.74
X120.41Y-18.2
X120.41Y-15.66
X120.41Y-13.12
X120.41Y-10.58
X120.41Y-8.04
X121.68Y-66.46
X121.68Y-64.542
X121.68Y-51.22
X121.76Y-33.44
X122.95Y-56.3
X124.22Y-48.68
X125.49Y-53.76
X126.76Y-91.86
X126.76Y-89.32
X126.76Y-86.78
X126.76Y-84.24
X126.76Y-81.7
X126.76Y-79.16
X126.76Y-76.62
X126.76Y-74.08
X126.76Y-71.54
X126.76Y-69.0
X126.76Y-33.44
X128.03Y-94.4
X128.03Y-30.9
X128.03Y-28.36
X128.03Y-25.82
X128.03Y-23.28
X128.03Y-20.74
X128.03Y-18.2
X128.03Y-15.66
X128.03Y-13.12
X128.03Y-10.58
X128.03Y-8.04
X129.3Y-60.11
X129.3Y-57.57
X129.3Y-55.03
X129.3Y-52.49
X129.3Y-49.95
X129.3Y-47.41
X129.3Y-44.87
X129.3Y-42.33
X129.3Y-39.79
X129.3Y-37.25
X130.57Y-62.65
X133.03Y-94.4
X133.11Y-11.85
X134.38Y-91.86
X134.38Y-89.32
X134.38Y-86.78
X134.38Y-84.24
X134.38Y-81.7
X134.38Y-79.16
X134.38Y-76.62
X134.38Y-74.08
X134.38Y-71.54
X134.38Y-69.0
X134.38Y-4.865
X135.57Y-62.65
X136.92Y-60.11
X136.92Y-57.57
X136.92Y-55.03
X136.92Y-52.49
X136.92Y-49.95
X136.92Y-47.41
X136.92Y-44.87
X136.92Y-42.33
X136.92Y-39.79
X136.92Y-37.25
X143.905Y-22.01
X143.905Y-3.595
X145.175Y-11.85
X145.81Y-66.46
X145.81Y-64.542
X146.445Y-4.865
T2
X13.0Y-53.4
X13.0Y-48.7
X13.0Y-44.0
X13.0Y-31.4
X13.0Y-26.7
X13.0Y-22.0
X149.62Y-89.32
X149.62Y-86.78
X149.62Y-84.24
X149.62Y-81.7
X149.62Y-79.16
X149.62Y-76.62
X149.62Y-74.08
X149.62Y-71.54
X149.62Y-69.0
X149.62Y-66.46
X149.62Y-63.92
X149.62Y-61.38
X149.62Y-58.84
X149.62Y-56.3
X149.62Y-53.76
X149.62Y-51.22
X149.62Y-48.68
X149.62Y-46.14
X149.62Y-43.6
X149.62Y-41.06
X149.62Y-38.52
X149.62Y-35.98
X149.62Y-33.44
X149.62Y-30.9
X149.62Y-28.36
X149.62Y-25.82
X149.62Y-23.28
X149.62Y-20.74
X149.62Y-18.2
X149.62Y-15.66
X149.62Y-13.12
X149.62Y-10.58
X154.7Y-89.32
X154.7Y-86.78
X154.7Y-84.24
X154.7Y-81.7
X154.7Y-79.16
X154.7Y-76.62
X154.7Y-74.08
X154.7Y-71.54
X154.7Y-69.0
X154.7Y-66.46
X154.7Y-63.92
X154.7Y-61.38
X154.7Y-58.84
X154.7Y-56.3
X154.7Y-53.76
X154.7Y-51.22
X154.7Y-48.68
X154.7Y-46.14
X154.7Y-43.6
X154.7Y-41.06
X154.7Y-38.52
X154.7Y-35.98
X154.7Y-33.44
X154.7Y-30.9
X154.7Y-28.36
X154.7Y-25.82
X154.7Y-23.28
X154.7Y-20.74
X154.7Y-18.2
X154.7Y-15.66
X154.7Y-13.12
X154.7Y-10.58
T3
X3.6Y-94.5
X3.6Y-5.5
X157.24Y-94.4
X157.24Y-5.5
T0
M30
